HIERARCHY
ROOT Hips
{
	OFFSET 0.000000 0.000000 0.000000
	CHANNELS 6 Xposition Yposition Zposition Zrotation Yrotation Xrotation 
	JOINT LHipJoint
	{
		OFFSET 0.000000 0.000000 0.000000
		CHANNELS 3 Zrotation Yrotation Xrotation
		JOINT LeftUpLeg
		{
			OFFSET 1.363060 -1.794630 0.839290
			CHANNELS 3 Zrotation Yrotation Xrotation
			JOINT LeftLeg
			{
				OFFSET 2.448110 -6.726130 0.000000
				CHANNELS 3 Zrotation Yrotation Xrotation
				JOINT LeftFoot
				{
					OFFSET 2.562200 -7.039590 0.000000
					CHANNELS 3 Zrotation Yrotation Xrotation
					JOINT LeftToeBase
					{
						OFFSET 0.157640 -0.433110 2.322550
						CHANNELS 3 Zrotation Yrotation Xrotation
						End Site
						{
							OFFSET 0.000000 0.000000 0.000000
						}
					}
				}
			}
		}
	}
	JOINT RHipJoint
	{
		OFFSET 0.000000 0.000000 0.000000
		CHANNELS 3 Zrotation Yrotation Xrotation
		JOINT RightUpLeg
		{
			OFFSET -1.305520 -1.794630 0.839290
			CHANNELS 3 Zrotation Yrotation Xrotation
			JOINT RightLeg
			{
				OFFSET -2.542530 -6.985550 0.000000
				CHANNELS 3 Zrotation Yrotation Xrotation
				JOINT RightFoot
				{
					OFFSET -2.568260 -7.056230 0.000000
					CHANNELS 3 Zrotation Yrotation Xrotation
					JOINT RightToeBase
					{
						OFFSET -0.164730 -0.452590 2.363150
						CHANNELS 3 Zrotation Yrotation Xrotation
						End Site
						{
							OFFSET 0.000000 0.000000 0.000000
						}
					}
				}
			}
		}
	}
}
MOTION
Frames: 27
Frame Time: 0.008333
3.226781 15.387981 -1.053136 174.848531 78.420940 -158.246190 -11.574909 -1.884235 -5.908623 -13.187254 9.725946 -62.542683 2.894325 7.527640 94.640978 2.563870 13.077756 -22.346196 -3.221900 0.000000 -10.448401 8.707922 1.200825 -5.758574 12.983116 -13.266043 -50.995281 1.958383 -5.489419 63.799036 -2.746363 -5.467685 -31.679605 3.095401 0.000000 -46.785900
3.409361 15.435264 -1.096844 174.758134 78.176029 -158.363061 -11.410496 -1.909276 -5.723511 -13.875607 9.252726 -63.342110 2.616485 7.403966 93.060278 2.617849 13.135550 -22.610869 -3.305300 0.000000 -10.111800 8.748095 1.110903 -5.792386 12.695212 -13.544203 -49.613776 2.023550 -5.358413 62.802510 -2.792186 -5.798707 -31.521091 3.188800 -0.000000 -47.929200
3.594743 15.491543 -1.143793 174.762761 77.893368 -158.383545 -11.250058 -1.931602 -5.530720 -14.502684 8.763222 -64.030803 2.316105 7.264373 91.257043 2.669138 13.164404 -22.811564 -3.367100 -0.000000 -9.822300 8.779036 1.012794 -5.820787 12.403419 -13.764958 -48.094494 2.090648 -5.200835 61.593075 -2.834775 -6.163191 -31.211430 3.267900 0.000001 -48.966900
3.783442 15.556534 -1.194013 174.833154 77.567939 -158.335304 -11.092683 -1.949673 -5.328682 -15.075251 8.256188 -64.598726 1.995241 7.105630 89.221732 2.718877 13.171961 -22.939644 -3.406400 0.000000 -9.595000 8.803086 0.907218 -5.838921 12.102771 -13.919241 -46.452902 2.154119 -5.019363 60.189359 -2.870931 -6.553953 -30.727392 3.322700 -0.000000 -49.904200
3.975819 15.629835 -1.247611 174.935592 77.196305 -158.250329 -10.936988 -1.961030 -5.116311 -15.605302 7.731383 -65.035429 1.655910 6.924663 86.943290 2.769226 13.170014 -22.992510 -3.424600 0.000001 -9.441500 8.823171 0.795353 -5.843471 11.788470 -14.005914 -44.713582 2.207954 -4.819025 58.622134 -2.896605 -6.961118 -30.042101 3.341200 -0.000000 -50.786700
4.172114 15.710768 -1.304584 175.038516 76.773113 -158.151526 -10.781050 -1.963813 -4.890048 -16.106711 7.178932 -65.342475 1.301192 6.718738 84.413804 2.823598 13.173998 -22.973953 -3.425600 0.000000 -9.356300 8.841584 0.678795 -5.829114 11.458562 -14.016765 -42.915443 2.245063 -4.605696 56.929965 -2.910539 -7.387583 -29.128356 3.314300 -0.000000 -51.715700
4.372438 15.798907 -1.365382 175.116115 76.302617 -158.067526 -10.623753 -1.953554 -4.651552 -16.596204 6.606131 -65.501533 0.932268 6.485742 81.616946 2.883771 13.189919 -22.891878 -3.412300 0.000000 -9.362499 8.861993 0.559159 -5.798984 11.109172 -13.973819 -41.090735 2.261344 -4.388119 55.160796 -2.906132 -7.810521 -27.955002 3.224000 -0.000000 -52.785800
4.576678 15.893256 -1.430162 175.158996 75.781886 -157.995688 -10.463900 -1.928764 -4.396242 -17.083670 5.999716 -65.521009 0.552918 6.224142 78.546286 2.952137 13.223827 -22.754143 -3.387000 -0.000000 -9.466600 8.885644 0.437576 -5.751167 10.744719 -13.878405 -39.287650 2.251960 -4.173657 53.361702 -2.883082 -8.232375 -26.495549 3.061101 -0.000000 -54.146699
4.784458 15.993123 -1.499375 175.155007 75.219224 -157.953381 -10.301134 -1.885658 -4.127040 -17.582152 5.368163 -65.383314 0.164621 5.932793 75.188961 3.027797 13.266102 -22.569168 -3.348800 0.000000 -9.694600 8.916034 0.315882 -5.694542 10.361264 -13.769289 -37.539344 2.216831 -3.972236 51.586107 -2.833913 -8.617922 -24.724691 2.808400 -0.000001 -55.884200
4.995255 16.097471 -1.573371 175.107534 74.621643 -157.937800 -10.135866 -1.822569 -3.844980 -18.097271 4.714895 -65.080764 -0.230231 5.610792 71.537450 3.108332 13.300962 -22.338986 -3.293900 0.000000 -10.075700 8.955011 0.195271 -5.637151 9.958281 -13.677877 -35.876162 2.157382 -3.791680 49.879423 -2.754210 -8.938375 -22.626641 2.456800 0.000000 -58.040100
5.208518 16.205028 -1.652339 175.036894 73.995731 -157.926390 -9.969392 -1.739669 -3.548694 -18.626903 4.040723 -64.617786 -0.628021 5.257546 67.593038 3.189269 13.307277 -22.052723 -3.214300 -0.000000 -10.658600 9.002666 0.075875 -5.585633 9.541856 -13.630257 -34.326976 2.076508 -3.637552 48.277024 -2.641825 -9.167566 -20.190982 2.006300 0.000001 -60.649199
5.423594 16.314407 -1.736456 174.961940 73.352005 -157.904209 -9.803824 -1.638345 -3.239836 -19.166080 3.355433 -63.993264 -1.025854 4.872110 63.361415 3.263737 13.259681 -21.693134 -3.100500 0.000000 -11.494200 9.059204 -0.041730 -5.548568 9.112941 -13.655102 -32.905190 1.978756 -3.513749 46.804237 -2.494722 -9.271278 -17.414258 1.465800 0.000000 -63.762600
5.639687 16.424260 -1.825647 174.895427 72.705747 -157.871517 -9.642020 -1.521153 -2.924088 -19.711116 2.680172 -63.197721 -1.421740 4.452782 58.852749 3.323121 13.134634 -21.238325 -2.943700 0.000000 -12.615100 9.125025 -0.156062 -5.536864 8.665871 -13.784557 -31.606042 1.871184 -3.422675 45.481244 -2.311305 -9.200360 -14.325202 0.861600 0.000000 -67.090100
5.856104 16.532986 -1.919680 174.861252 72.071170 -157.813243 -9.488062 -1.394243 -2.605648 -20.249873 2.034502 -62.236682 -1.812244 3.997822 54.092200 3.358662 12.918187 -20.660304 -2.737200 -0.000000 -14.052101 9.198162 -0.266322 -5.555743 8.201556 -14.025651 -30.417831 1.759489 -3.362797 44.311980 -2.096481 -8.925425 -10.964830 0.238000 0.000000 -70.388199
6.072721 16.638559 -2.018238 174.909417 71.460452 -157.673344 -9.347412 -1.266878 -2.281397 -20.757707 1.428604 -61.155573 -2.191009 3.507324 49.132266 3.363232 12.609500 -19.929750 -2.477300 0.000000 -15.816100 9.273297 -0.374063 -5.598544 7.741176 -14.350100 -29.345141 1.645825 -3.328495 43.287118 -1.863786 -8.455365 -7.360775 -0.355299 -0.000000 -73.815100
6.288765 16.739507 -2.120684 175.048463 70.891952 -157.462987 -9.225671 -1.149217 -1.962919 -21.222326 0.896280 -59.957517 -2.553423 2.980815 44.025758 3.330912 12.219308 -19.037110 -2.170800 0.000000 -17.874400 9.348234 -0.476886 -5.667950 7.278959 -14.746566 -28.350620 1.536364 -3.314971 42.404849 -1.623814 -7.768370 -3.620326 -0.853200 -0.000000 -76.719100
6.504182 16.834005 -2.226372 175.313406 70.378589 -157.147959 -9.129038 -1.053122 -1.653859 -21.620504 0.456556 -58.692856 -2.890587 2.423302 38.862516 3.260142 11.770096 -17.984864 -1.828800 0.000000 -20.175500 9.417612 -0.575500 -5.753224 6.833054 -15.168103 -27.422922 1.432919 -3.314226 41.654036 -1.394137 -6.894135 0.168422 -1.204600 0.000001 -79.045199
6.718826 16.920468 -2.334560 175.725756 69.930672 -156.710856 -9.062547 -0.988972 -1.361704 -21.935085 0.129731 -57.413462 -3.192930 1.845427 33.753184 3.153513 11.289042 -16.799527 -1.468701 0.000000 -22.643200 9.477061 -0.670459 -5.843450 6.418631 -15.568530 -26.548804 1.337438 -3.319132 41.030790 -1.189841 -5.872781 3.887453 -1.375300 0.000000 -80.636701
6.932669 16.997527 -2.444442 176.296613 69.553107 -156.144562 -9.028725 -0.962990 -1.095755 -22.160345 -0.066549 -56.176587 -3.452099 1.264852 28.828027 3.017569 10.799710 -15.531945 -1.110600 -0.000001 -25.188300 9.523479 -0.762917 -5.927023 6.048481 -15.905909 -25.720299 1.251079 -3.324290 40.537087 -1.021381 -4.760592 7.409700 -1.358499 -0.000000 -81.454101
7.145858 17.064048 -2.555169 177.020732 69.244424 -155.452789 -9.026084 -0.974827 -0.863729 -22.305815 -0.123235 -55.042973 -3.664069 0.704091 24.222634 2.862098 10.317985 -14.250385 -0.774500 0.000000 -27.726700 9.555874 -0.854786 -5.992369 5.731863 -16.147006 -24.943103 1.174125 -3.327629 40.191083 -0.892387 -3.623225 10.597958 -1.176401 0.000000 -81.395800
7.358318 17.119216 -2.666076 177.883934 68.998034 -154.652209 -9.049932 -1.019008 -0.675115 -22.394866 -0.031274 -54.062858 -3.831237 0.187290 20.067661 2.697044 9.844293 -13.036864 -0.478700 0.000000 -30.170200 9.574710 -0.947671 -6.032938 5.470834 -16.275799 -24.219978 1.105156 -3.329497 40.006844 -0.801262 -2.537093 13.350905 -0.880200 -0.000000 -80.693300
7.570210 17.162516 -2.776458 178.846851 68.802773 -153.776041 -9.091112 -1.084524 -0.531894 -22.462640 0.197111 -53.272786 -3.961667 -0.267736 16.455960 2.533405 9.380211 -11.963870 -0.235900 -0.000000 -32.455900 9.583627 -1.042009 -6.044634 5.256692 -16.290671 -23.569979 1.042210 -3.333994 40.019199 -0.741052 -1.565597 15.567733 -0.530800 0.000000 -79.373500
7.781494 17.193615 -2.885930 179.871996 68.646871 -152.856732 -9.140348 -1.160417 -0.432918 -22.536573 0.540466 -52.689722 -4.064997 -0.650176 13.446217 2.381218 8.929710 -11.090922 -0.053200 0.000000 -34.518700 9.586334 -1.137037 -6.028665 5.077220 -16.201394 -23.007294 0.982023 -3.345609 40.254168 -0.704506 -0.766029 17.201101 -0.192800 -0.000000 -77.692800
7.992111 17.212382 -2.994112 -179.099985 68.518605 -151.943939 -9.187699 -1.237231 -0.367812 -22.626845 0.943141 -52.296532 -4.146650 -0.961058 11.032797 2.253520 8.530495 -10.442782 0.072000 0.000001 -36.309600 9.588957 -1.228793 -5.990766 4.906628 -16.031194 -22.550406 0.921770 -3.369987 40.742536 -0.683838 -0.164878 18.226745 0.087100 -0.000000 -75.761300
8.201555 17.218639 -3.101545 -178.034711 68.409083 -151.000901 -9.232848 -1.310495 -0.333932 -22.722984 1.396684 -52.118172 -4.213080 -1.192521 9.263981 2.151945 8.165439 -10.053851 0.140100 0.000000 -37.728800 9.587766 -1.319718 -5.934389 4.764394 -15.779051 -22.204206 0.857277 -3.407711 41.483617 -0.676657 0.199165 18.695876 0.267500 -0.000000 -74.127100
8.409856 17.212459 -3.207840 -177.018169 68.308826 -150.098115 -9.268885 -1.376634 -0.308806 -22.793261 1.796371 -52.084883 -4.256889 -1.359958 8.040696 2.093745 7.932641 -9.878658 0.168601 0.000000 -38.762300 9.591650 -1.401437 -5.870540 4.607059 -15.484224 -21.986350 0.787784 -3.464049 42.502729 -0.676468 0.365673 18.628980 0.353400 0.000000 -72.584800
8.616641 17.193831 -3.313238 -176.046007 68.210866 -149.224771 -9.297957 -1.435489 -0.283471 -22.802419 2.104229 -52.186173 -4.275173 -1.463530 7.349074 2.081478 7.850842 -9.891820 0.167001 0.000000 -39.361700 9.599843 -1.473001 -5.804937 4.438706 -15.157725 -21.900401 0.711483 -3.538774 43.789506 -0.681941 0.356462 18.110465 0.353101 0.000000 -71.366000
